<svg width="24" height="24" viewBox="0 0 24 24" fill="none" xmlns="http://www.w3.org/2000/svg">
<path d="M5.4 19.6C4.65 18.85 4.06233 17.9833 3.637 17C3.21167 16.0167 2.99933 15 3 13.95C3.00067 12.9 3.20067 11.8627 3.6 10.838C3.99933 9.81333 4.64934 8.85067 5.55 7.95C6.13334 7.36667 6.85433 6.86667 7.713 6.45C8.57167 6.03333 9.58833 5.70433 10.763 5.463C11.9377 5.22167 13.2793 5.07567 14.788 5.025C16.2967 4.97433 17.984 5.03267 19.85 5.2C19.9833 6.96667 20.025 8.59167 19.975 10.075C19.925 11.5583 19.7873 12.896 19.562 14.088C19.3367 15.28 19.02 16.3213 18.612 17.212C18.204 18.1027 17.7 18.8487 17.1 19.45C16.2167 20.3333 15.2793 20.9793 14.288 21.388C13.2967 21.7967 12.284 22.0007 11.25 22C10.1667 22 9.10833 21.7873 8.075 21.362C7.04167 20.9367 6.15 20.3493 5.4 19.6ZM8.2 19.2C8.68333 19.4833 9.17933 19.6877 9.688 19.813C10.1967 19.9383 10.7173 20.0007 11.25 20C12.0167 20 12.775 19.846 13.525 19.538C14.275 19.23 14.9917 18.734 15.675 18.05C15.975 17.75 16.2793 17.329 16.588 16.787C16.8967 16.245 17.1633 15.537 17.388 14.663C17.6127 13.789 17.7833 12.7307 17.9 11.488C18.0167 10.2453 18.0333 8.766 17.95 7.05C17.1333 7.01667 16.2127 7.00433 15.188 7.013C14.1633 7.02167 13.1423 7.10067 12.125 7.25C11.1077 7.39933 10.141 7.641 9.225 7.975C8.309 8.309 7.559 8.76733 6.975 9.35C6.225 10.1 5.70834 10.8417 5.425 11.575C5.14167 12.3083 5 13.0167 5 13.7C5 14.6833 5.18767 15.546 5.563 16.288C5.93834 17.03 6.26734 17.5507 6.55 17.85C7.25 16.5167 8.175 15.2373 9.325 14.012C10.475 12.7867 11.8167 11.7827 13.35 11C12.15 12.05 11.1043 13.2377 10.213 14.563C9.32167 15.8883 8.65067 17.434 8.2 19.2Z" fill="#2D4C36"/>
</svg>
