<svg width="24" height="24" viewBox="0 0 24 24" fill="none" xmlns="http://www.w3.org/2000/svg">
<path fill-rule="evenodd" clip-rule="evenodd" d="M13.45 20.281C16.122 17.162 19.5 13.218 19.5 9.671C19.5 5.435 16.142 2 12 2C7.858 2 4.5 5.435 4.5 9.671C4.5 13.218 7.878 17.162 10.55 20.281C11.07 20.889 11.564 21.464 12 22C12.436 21.464 12.93 20.889 13.45 20.281ZM12 12C12.3611 12 12.7187 11.9289 13.0524 11.7907C13.386 11.6525 13.6892 11.4499 13.9445 11.1945C14.1999 10.9392 14.4025 10.636 14.5407 10.3024C14.6789 9.96873 14.75 9.61114 14.75 9.25C14.75 8.88886 14.6789 8.53127 14.5407 8.19762C14.4025 7.86398 14.1999 7.56082 13.9445 7.30546C13.6892 7.0501 13.386 6.84753 13.0524 6.70933C12.7187 6.57113 12.3611 6.5 12 6.5C11.2707 6.5 10.5712 6.78973 10.0555 7.30546C9.53973 7.82118 9.25 8.52065 9.25 9.25C9.25 9.97935 9.53973 10.6788 10.0555 11.1945C10.5712 11.7103 11.2707 12 12 12Z" fill="#2D4C36"/>
</svg>
