<svg width="462" height="56" viewBox="0 0 462 56" fill="none" xmlns="http://www.w3.org/2000/svg">
<path fill-rule="evenodd" clip-rule="evenodd" d="M27.9892 7.33229L55.9785 32.436V55.9892H47.1398V36.3815L27.9892 19.2053L7.37011 37.6987L1.46858 31.1189L27.9892 7.33229Z" fill="#FEE074"/>
<path fill-rule="evenodd" clip-rule="evenodd" d="M0 55.9892V0.0107536H8.83871V55.9892H0Z" fill="#FEE074"/>
<path d="M91.9373 27.2229C93.5872 27.5175 94.9867 28.3867 96.1357 29.8303C97.2847 31.274 97.8593 32.9091 97.8593 34.7358C97.8593 36.2973 97.4468 37.7115 96.6218 38.9784C95.8263 40.2158 94.6626 41.2028 93.1305 41.9394C91.5985 42.6465 89.816 43 87.7831 43H75.4973V12.2855H87.2086C89.3004 12.2855 91.0976 12.639 92.6002 13.3461C94.1028 14.0532 95.2371 15.0108 96.0031 16.2187C96.7691 17.3972 97.1522 18.723 97.1522 20.1961C97.1522 21.9639 96.6808 23.437 95.738 24.6155C94.7952 25.794 93.5283 26.6631 91.9373 27.2229ZM80.5354 25.19H86.7667C88.4166 25.19 89.6982 24.8217 90.6115 24.0852C91.5543 23.3191 92.0257 22.229 92.0257 20.8148C92.0257 19.4301 91.5543 18.3547 90.6115 17.5887C89.6982 16.7932 88.4166 16.3955 86.7667 16.3955H80.5354V25.19ZM87.3412 38.89C89.05 38.89 90.3905 38.4775 91.3628 37.6526C92.3351 36.8276 92.8212 35.6786 92.8212 34.2055C92.8212 32.7029 92.3056 31.5097 91.2744 30.6258C90.2432 29.7419 88.8732 29.3 87.1644 29.3H80.5354V38.89H87.3412ZM114.957 12.2855V31.8632C114.957 34.1908 115.561 35.9438 116.769 37.1223C118.006 38.3008 119.715 38.89 121.895 38.89C124.105 38.89 125.814 38.3008 127.022 37.1223C128.259 35.9438 128.878 34.1908 128.878 31.8632V12.2855H133.916V31.7748C133.916 34.2791 133.371 36.4004 132.281 38.1387C131.191 39.877 129.732 41.1733 127.906 42.0277C126.079 42.8822 124.061 43.3094 121.851 43.3094C119.641 43.3094 117.623 42.8822 115.797 42.0277C113.999 41.1733 112.571 39.877 111.51 38.1387C110.449 36.4004 109.919 34.2791 109.919 31.7748V12.2855H114.957ZM172.339 43H167.301L152.143 20.0635V43H147.105V12.2413H152.143L167.301 35.1335V12.2413H172.339V43ZM202.51 43L190.622 29.2558V43H185.584V12.2855H190.622V26.2948L202.554 12.2855H208.874L195.528 27.6648L209.095 43H202.51ZM225.217 16.3513V25.3668H235.824V29.4768H225.217V38.89H237.15V43H220.179V12.2413H237.15V16.3513H225.217ZM265.938 43L258.867 30.7142H255.022V43H249.984V12.2855H260.591C262.948 12.2855 264.936 12.698 266.557 13.5229C268.207 14.3478 269.429 15.4527 270.225 16.8374C271.05 18.2222 271.462 19.7689 271.462 21.4777C271.462 23.4812 270.873 25.3078 269.694 26.9577C268.545 28.5782 266.763 29.683 264.347 30.2723L271.948 43H265.938ZM255.022 26.6926H260.591C262.476 26.6926 263.89 26.2212 264.833 25.2784C265.805 24.3356 266.292 23.0687 266.292 21.4777C266.292 19.8868 265.82 18.6494 264.877 17.7655C263.935 16.8521 262.506 16.3955 260.591 16.3955H255.022V26.6926ZM303.23 24.8806V29.1232H285.067V24.8806H303.23ZM315.337 27.5765C315.337 24.5713 316.03 21.8755 317.415 19.489C318.829 17.1026 320.729 15.2465 323.115 13.9206C325.531 12.5654 328.168 11.8877 331.026 11.8877C334.296 11.8877 337.198 12.698 339.732 14.3184C342.295 15.9094 344.152 18.178 345.301 21.1242H339.246C338.451 19.5038 337.346 18.2958 335.932 17.5003C334.517 16.7048 332.882 16.3071 331.026 16.3071C328.993 16.3071 327.181 16.7638 325.59 17.6771C323.999 18.5904 322.747 19.9015 321.834 21.6103C320.95 23.3191 320.508 25.3078 320.508 27.5765C320.508 29.8451 320.95 31.8338 321.834 33.5426C322.747 35.2514 323.999 36.5772 325.59 37.52C327.181 38.4333 328.993 38.89 331.026 38.89C332.882 38.89 334.517 38.4923 335.932 37.6968C337.346 36.9013 338.451 35.6933 339.246 34.0729H345.301C344.152 37.0191 342.295 39.2877 339.732 40.8787C337.198 42.4697 334.296 43.2652 331.026 43.2652C328.139 43.2652 325.502 42.6023 323.115 41.2765C320.729 39.9212 318.829 38.0503 317.415 35.6639C316.03 33.2774 315.337 30.5816 315.337 27.5765ZM382.354 12.2855V43H377.316V29.5652H362.865V43H357.827V12.2855H362.865V25.4552H377.316V12.2855H382.354ZM414.133 36.7245H401.272L399.063 43H393.804L404.808 12.2413H410.642L421.646 43H416.342L414.133 36.7245ZM412.719 32.6145L407.725 18.34L402.687 32.6145H412.719ZM458.294 43H453.256L438.097 20.0635V43H433.059V12.2413H438.097L453.256 35.1335V12.2413H458.294V43Z" fill="#344E41"/>
</svg>
