<svg width="274" height="56" viewBox="0 0 274 56" fill="none" xmlns="http://www.w3.org/2000/svg">
<path fill-rule="evenodd" clip-rule="evenodd" d="M27.9892 7.32153L55.9785 32.4253V55.9785H47.1398V36.3708L27.9892 19.1945L7.37011 37.688L1.46858 31.1081L27.9892 7.32153Z" fill="#FEE074"/>
<path fill-rule="evenodd" clip-rule="evenodd" d="M0 55.9785V0H8.83871V55.9785H0Z" fill="#FEE074"/>
<path d="M91.9373 27.2121C93.5872 27.5068 94.9867 28.3759 96.1357 29.8196C97.2847 31.2632 97.8593 32.8984 97.8593 34.7251C97.8593 36.2866 97.4468 37.7008 96.6218 38.9676C95.8263 40.2051 94.6626 41.192 93.1305 41.9286C91.5985 42.6357 89.816 42.9892 87.7831 42.9892H75.4973V12.2747H87.2086C89.3004 12.2747 91.0976 12.6283 92.6002 13.3354C94.1028 14.0425 95.2371 15 96.0031 16.208C96.7691 17.3865 97.1522 18.7123 97.1522 20.1854C97.1522 21.9531 96.6808 23.4262 95.738 24.6047C94.7952 25.7832 93.5283 26.6524 91.9373 27.2121ZM80.5354 25.1792H86.7667C88.4166 25.1792 89.6982 24.811 90.6115 24.0744C91.5543 23.3084 92.0257 22.2183 92.0257 20.8041C92.0257 19.4194 91.5543 18.344 90.6115 17.578C89.6982 16.7825 88.4166 16.3847 86.7667 16.3847H80.5354V25.1792ZM87.3412 38.8792C89.05 38.8792 90.3905 38.4668 91.3628 37.6418C92.3351 36.8169 92.8212 35.6678 92.8212 34.1947C92.8212 32.6921 92.3056 31.4989 91.2744 30.6151C90.2432 29.7312 88.8732 29.2892 87.1644 29.2892H80.5354V38.8792H87.3412ZM114.957 12.2747V31.8525C114.957 34.18 115.561 35.933 116.769 37.1115C118.006 38.29 119.715 38.8792 121.895 38.8792C124.105 38.8792 125.814 38.29 127.022 37.1115C128.259 35.933 128.878 34.18 128.878 31.8525V12.2747H133.916V31.7641C133.916 34.2684 133.371 36.3897 132.281 38.128C131.191 39.8662 129.732 41.1626 127.906 42.017C126.079 42.8714 124.061 43.2986 121.851 43.2986C119.641 43.2986 117.623 42.8714 115.797 42.017C113.999 41.1626 112.571 39.8662 111.51 38.128C110.449 36.3897 109.919 34.2684 109.919 31.7641V12.2747H114.957ZM172.339 42.9892H167.301L152.143 20.0528V42.9892H147.105V12.2305H152.143L167.301 35.1228V12.2305H172.339V42.9892ZM202.51 42.9892L190.622 29.2451V42.9892H185.584V12.2747H190.622V26.2841L202.554 12.2747H208.874L195.528 27.6541L209.095 42.9892H202.51ZM225.217 16.3405V25.356H235.824V29.466H225.217V38.8792H237.15V42.9892H220.179V12.2305H237.15V16.3405H225.217ZM265.938 42.9892L258.867 30.7034H255.022V42.9892H249.984V12.2747H260.591C262.948 12.2747 264.936 12.6872 266.557 13.5121C268.207 14.3371 269.429 15.4419 270.225 16.8267C271.05 18.2114 271.462 19.7582 271.462 21.467C271.462 23.4704 270.873 25.2971 269.694 26.947C268.545 28.5674 266.763 29.6723 264.347 30.2615L271.948 42.9892H265.938ZM255.022 26.6818H260.591C262.476 26.6818 263.89 26.2104 264.833 25.2676C265.805 24.3248 266.292 23.058 266.292 21.467C266.292 19.876 265.82 18.6386 264.877 17.7547C263.935 16.8414 262.506 16.3847 260.591 16.3847H255.022V26.6818Z" fill="white"/>
</svg>
