<svg width="25" height="24" viewBox="0 0 25 24" fill="none" xmlns="http://www.w3.org/2000/svg">
<path fill-rule="evenodd" clip-rule="evenodd" d="M7.90997 5.688C8.75797 4.104 11.03 4.104 11.877 5.688L15.081 11.674L15.311 11.189C16.126 9.479 18.56 9.479 19.374 11.189L21.801 16.284C22.512 17.777 21.424 19.501 19.77 19.501H4.27297C2.57297 19.501 1.48697 17.688 2.28897 16.189L7.90997 5.688ZM12.554 18.001H19.77C19.8965 18.0009 20.021 17.9689 20.1318 17.9077C20.2426 17.8466 20.3362 17.7585 20.4037 17.6515C20.4713 17.5445 20.5107 17.4221 20.5183 17.2958C20.5258 17.1695 20.5013 17.0433 20.447 16.929L18.02 11.834C17.959 11.7061 17.8631 11.5981 17.7432 11.5225C17.6234 11.4469 17.4846 11.4068 17.343 11.4068C17.2013 11.4068 17.0625 11.4469 16.9427 11.5225C16.8229 11.5981 16.7269 11.7061 16.666 11.834L15.796 13.658C15.7362 13.7829 15.6431 13.8889 15.5268 13.9641C15.4105 14.0394 15.2757 14.0809 15.1373 14.0842C14.9988 14.0876 14.8622 14.0525 14.7425 13.9829C14.6227 13.9133 14.5246 13.8119 14.459 13.69L10.555 6.396C10.491 6.27619 10.3956 6.17602 10.2791 6.10617C10.1626 6.03633 10.0293 5.99944 9.89347 5.99944C9.75763 5.99944 9.62434 6.03633 9.50784 6.10617C9.39133 6.17602 9.29598 6.27619 9.23197 6.396L3.61197 16.897C3.55084 17.0112 3.52032 17.1392 3.52338 17.2687C3.52644 17.3982 3.56298 17.5247 3.62943 17.6358C3.69589 17.747 3.79 17.8391 3.9026 17.9031C4.0152 17.9671 4.14246 18.0008 4.27197 18.001H12.554Z" fill="#2D4C36"/>
</svg>
